/* XPM */
static char *_571674604255[] = {
/* columns rows colors chars-per-pixel */
"32 32 143 2 ",
"   c #0C6C31",
".  c #166732",
"X  c #1A6F3A",
"o  c #097334",
"O  c #087B37",
"+  c #1E7235",
"@  c #1D7738",
"#  c #15793D",
"$  c #1B7939",
"%  c #23793A",
"&  c #2F7C40",
"*  c #327D4E",
"=  c #497B54",
"-  c #7B7C7E",
";  c #07823A",
":  c #08893E",
">  c #099141",
",  c #258441",
"<  c #298241",
"1  c #268845",
"2  c #2F8A45",
"3  c #25804A",
"4  c #249448",
"5  c #28924F",
"6  c #35904A",
"7  c #2F8552",
"8  c #358857",
"9  c #269354",
"0  c #2D9357",
"q  c #2E9458",
"w  c #369552",
"e  c #319459",
"r  c #3C9B59",
"t  c #3E9462",
"y  c #41855B",
"u  c #47895D",
"i  c #4B845B",
"p  c #48925E",
"a  c #429B5C",
"s  c #4A8E62",
"d  c #5B8469",
"f  c #4C9165",
"g  c #479768",
"h  c #459C6A",
"j  c #519B67",
"k  c #569768",
"l  c #5C9769",
"z  c #599D6C",
"x  c #5F9271",
"c  c #539A71",
"v  c #618E6D",
"b  c #638F71",
"n  c #629371",
"m  c #67967A",
"M  c #659B7C",
"N  c #45A26B",
"B  c #54A26D",
"V  c #6BA67E",
"C  c #7B7E81",
"Z  c #7D8183",
"A  c #7E8E85",
"S  c #789380",
"D  c #7A9A87",
"F  c #7FA088",
"G  c #77AA8E",
"H  c #78AB8F",
"J  c #7CB090",
"K  c #828385",
"L  c #858789",
"P  c #87898B",
"I  c #8A8B8D",
"U  c #8C8E91",
"Y  c #8F9093",
"T  c #929395",
"R  c #959699",
"E  c #97999B",
"W  c #9A9B9D",
"Q  c #85A48F",
"!  c #83AA8D",
"~  c #88AF95",
"^  c #95AC9E",
"/  c #8FB59E",
"(  c #97B19F",
")  c #9C9EA1",
"_  c #9EA2A4",
"`  c #96B3A4",
"'  c #97BEA7",
"]  c #A2A3A5",
"[  c #A0A8A7",
"{  c #A4A6A9",
"}  c #A6AAAB",
"|  c #ABABAD",
" . c #B0AEAF",
".. c #ADAEB1",
"X. c #AEB2B3",
"o. c #B3B4B5",
"O. c #B8B7B7",
"+. c #B6B6B9",
"@. c #B7B9BB",
"#. c #BABABC",
"$. c #C0BFBF",
"%. c #AEC4B8",
"&. c #AFC8B8",
"*. c #B7C9BD",
"=. c #B9C9BF",
"-. c #BDBFC0",
";. c #BFC0C2",
":. c #BCCDC4",
">. c #C3C3C4",
",. c #C8C6C7",
"<. c #C0CCC6",
"1. c #C6C7C9",
"2. c #C7CBCA",
"3. c #CACBCC",
"4. c #C3D1C9",
"5. c #CECED0",
"6. c #D0CFD0",
"7. c #CED2D1",
"8. c #CCDCD3",
"9. c #D2D3D4",
"0. c #D8D7D7",
"q. c #D9D9D7",
"w. c #D6D7D8",
"e. c #D9D7D9",
"r. c #D7DBDA",
"t. c #DBDBDC",
"y. c #E0DFDF",
"u. c #D3E0D9",
"i. c #DDE0DF",
"p. c #E0E0DE",
"a. c #DEDFE1",
"s. c #DFE0E1",
"d. c #E4E5E4",
"f. c #E4EBE7",
"g. c #E8E8E6",
"h. c #E7E7E8",
"j. c #E7E8E9",
"k. c #EBEBEC",
"l. c #EFEFF0",
"z. c #EFF0F0",
"x. c #F4F4F4",
"c. c #FAFAFA",
"v. c None",
/* pixels */
"v.v.v.v.v.v.v.v.v.v.v.v.;.>.1.3.5.9.w.r.v.v.v.v.v.v.v.v.v.v.v.v.",
"v.v.v.v.v.v.v.v.v.;.;.;.;.>.1.,.3.9.w.t.a.d.d.v.v.v.v.v.v.v.v.v.",
"v.v.v.v.v.v.v.1.>.>.>.$.>.>.1.,.,.>.>.,.9.a.h.k.k.v.v.v.v.v.v.v.",
"v.v.v.v.v.v.3.1.>.>.>.6.w.y.d.d.d.a.0.3.>.$.6.d.j.h.v.v.v.v.v.v.",
"v.v.v.v.v.3.5.1.>.6.y.k.x.x.c.x.x.l.k.d.t.3.#.#.r.h.j.v.v.v.v.v.",
"v.v.v.v.9.9.,.1.r.k.x.c.c.c.c.c.x.l.k.k.h.t.9.-.o.9.j.d.v.v.v.v.",
"v.v.v.q.9.3.>.t.z.c.c.c.c.c.f.u.u.k.k.h.d.a.t.5.$. .5.k.j.v.v.v.",
"v.v.t.q.6.>.q.l.c.c.c.c.z.' j r a V 4.d.a.a.e.w.3.+.| w.j.j.v.v.",
"v.v.t.q.>.3.k.x.c.c.c.x./ # 1 r w , s 2.a.a.w.5.5.>.|  .t.d.v.v.",
"v.d.p.6.>.a.z.x.x.c.c.r.* # J 7.%.p # Q w.9.5.5.3.>.+.) #.9.5.v.",
"v.d.t.>.5.h.l.l.x.x.x.*.X 8 r.j.h.~ @ v 5.3.3.1.>.-.@.{ ) -.>.v.",
"v.d.9.$.w.k.k.l.k.x.x.=.X 7 8.h.t.! % x 3.1.1.-.-.-.@.| R X.-.v.",
"d.d.,.>.t.g.j.k.k.k.l.r.y 3 :.s.7.l % Q 1.;.-.-.@.+.o.| R ] $.#.",
"g.d.$.,.t.d.d.d.j.j.k.k.:.%.t.r.9.` Q #.-.-.-.o.X.X...| W R #.$.",
"g.p.#.3.t.s.a.s.d.a.t.s.s.a.9.7.2.1.#.#.o.X.X.....| | { E T #.-.",
"d.p.O.,.e.t.t.a.:.x s f g h h N B z k f u s S | { { { ] R I +.-.",
"g.y.o.>.9.w.9.a.` .   o O O > > 4 6 2 < # X = ] { _ ) ) T I +.-.",
"g.d.o.;.9.w.9.w.>.D m m M M t > 5 n b v b = P ) ) ) ) E U I @.-.",
"g.d.#.#.5.9.w.9.6.9.9.9.5.5.G > e _ { { ) ) ) ) ) E E E L U @.-.",
"g.g.;.o.3.9.9.9.9.9.9.9.9.5.G > q _ { ] ) ) E ) E R R U Z R @.@.",
"v.g.9. .;.9.9.9.9.9.9.w.7.5.H > 0 _ { ) ) ) E E R T T I - { @.v.",
"v.g.p.o.@.5.9.9.9.9.9.9.9.5.G > q _ { ) ) E E R R T U K K  .+.v.",
"v.g.g.6...;.5.w.w.5.9.9.9.5.H > q ` | ] ) ) E R R U P - R o.o.v.",
"v.v.g.p.@.o.3.5.5.w.9.9.7.7.H > q } | { ) ) E R T U Z K { ..v.v.",
"v.v.g.g.q. .O.3.9.9.9.9.9.5.H > q } ..{ ] W W T U Z - ) |  .v.v.",
"v.v.v.g.g.6. .+.,.6.9.9.9.5.` 9 c X...{ ] ] W T K C T { { v.v.v.",
"v.v.v.v.g.d.3.| o.>.3.6.9.5.1.X.+.@.o.| { ) T K - T ) ] v.v.v.v.",
"v.v.v.v.v.q.6.#.} | O.>.1.,.1.>.-.+...{ ) Y K K T ) ) v.v.v.v.v.",
"v.v.v.v.v.v.>.o.] W W } o.O.O.+.X.} ] T I L I T R W v.v.v.v.v.v.",
"v.v.v.v.v.v.v.{ E U P I T T E E R Y I P P I U T R v.v.v.v.v.v.v.",
"v.v.v.v.v.v.v.v.v.L Z Z C C C Z Z K K L I I Y v.v.v.v.v.v.v.v.v.",
"v.v.v.v.v.v.v.v.v.v.v.v.C - C C C C K K v.v.v.v.v.v.v.v.v.v.v.v."
};
