/* XPM */
static char *_571674595143[] = {
/* columns rows colors chars-per-pixel */
"16 16 185 2 ",
"   c #1E924D",
".  c #3B8659",
"X  c #399356",
"o  c #3F9161",
"O  c #448057",
"+  c #41875D",
"@  c #4D8C5F",
"#  c #4E8B60",
"$  c #469F6B",
"%  c #51966C",
"&  c #599F6E",
"*  c #5F9B79",
"=  c #609C7B",
"-  c #629E7C",
";  c #46A06C",
":  c #47A06D",
">  c #5DA57C",
",  c #67A97D",
"<  c #7B8082",
"1  c #7D8183",
"2  c #7F8284",
"3  c #7A9D87",
"4  c #73A383",
"5  c #74A48A",
"6  c #828486",
"7  c #848587",
"8  c #858688",
"9  c #88898B",
"0  c #89898B",
"q  c #898A8D",
"w  c #8A8B8C",
"e  c #809388",
"r  c #8D8E90",
"t  c #8E8F90",
"y  c #8F9092",
"u  c #8E9093",
"i  c #919294",
"p  c #929395",
"a  c #939495",
"s  c #929496",
"d  c #939598",
"f  c #949699",
"g  c #969799",
"h  c #979799",
"j  c #97989A",
"k  c #96989B",
"l  c #999A9B",
"z  c #989A9D",
"x  c #999B9D",
"c  c #999B9E",
"v  c #999D9E",
"b  c #9A9C9F",
"n  c #82A38C",
"m  c #80A68D",
"M  c #83A490",
"N  c #88B296",
"B  c #8AB19A",
"V  c #8CB49D",
"C  c #86B99C",
"Z  c #8AB89E",
"A  c #9C9EA1",
"S  c #9E9FA0",
"D  c #9F9FA1",
"F  c #9FA0A2",
"G  c #9AA6A1",
"H  c #9FA1A4",
"J  c #A0A1A5",
"K  c #A1A2A5",
"L  c #A2A3A4",
"P  c #A3A4A6",
"I  c #A4A3A8",
"U  c #A3A5A8",
"Y  c #A7A7A9",
"T  c #A7A7AB",
"R  c #A8A9AB",
"E  c #ABABAD",
"W  c #A9AAAE",
"Q  c #AAACAF",
"!  c #A8BCAE",
"~  c #ACACB0",
"^  c #AEAEB1",
"/  c #B1B1B2",
"(  c #B3B3B4",
")  c #B1B6B6",
"_  c #B4B5B7",
"`  c #B6B6B6",
"'  c #B3B5B8",
"]  c #B5B6B8",
"[  c #B5B6B9",
"{  c #B6B7B9",
"}  c #B9BABC",
"|  c #BABBBE",
" . c #BCBCBD",
".. c #BDBDBF",
"X. c #C0BFBF",
"o. c #8FC09F",
"O. c #99C2A6",
"+. c #A5C0AE",
"@. c #B2C5BA",
"#. c #B8C0BD",
"$. c #BEBFC2",
"%. c #BFC0C3",
"&. c #C0C0C0",
"*. c #C1C1C2",
"=. c #C0C1C3",
"-. c #C0C0C4",
";. c #C2C3C4",
":. c #C4C4C6",
">. c #C5C5C7",
",. c #C6C5C6",
"<. c #C4C7C7",
"1. c #C6C6C7",
"2. c #C7C6C7",
"3. c #C6C6C8",
"4. c #C6C7C9",
"5. c #C5C9C9",
"6. c #C7C8CA",
"7. c #C9C8C8",
"8. c gray79",
"9. c #C9C9CA",
"0. c #CBCBCD",
"q. c #CBCECF",
"w. c #CDCDCD",
"e. c #CCCDCE",
"r. c #CDCDCE",
"t. c #CDCDCF",
"y. c #CCCECF",
"u. c gray81",
"i. c #D0CFCE",
"p. c #C9D7CE",
"a. c #CDCED0",
"s. c #D0CFD0",
"d. c #CFD0D1",
"f. c #CFD1D3",
"g. c #CFD5D4",
"h. c #CDD8D3",
"j. c #D0D0D0",
"k. c #D1D0D1",
"l. c #D1D1D3",
"z. c #D1D2D3",
"x. c #D2D3D5",
"c. c #D3D3D5",
"v. c #D3D4D5",
"b. c #D3D4D6",
"n. c #D5D5D5",
"m. c #D4D5D6",
"M. c #D6D5D6",
"N. c #D7D7D6",
"B. c #D7D6D7",
"V. c #D6D6D8",
"C. c #D7D8D8",
"Z. c #D7DEDA",
"A. c #D8D9D9",
"S. c #DBDBD9",
"D. c #D9DADB",
"F. c #DADADA",
"G. c #DBDBDC",
"H. c #DFDFDD",
"J. c #DDDDDE",
"K. c #DDDEDF",
"L. c #DEDEDF",
"P. c #E0DFDE",
"I. c #D5E4DB",
"U. c #E1E1E0",
"Y. c #E3E2E1",
"T. c #E0E1E2",
"R. c #E1E1E2",
"E. c #E0E3E2",
"W. c #E3E3E2",
"Q. c #E7E7E5",
"!. c #E6E7E8",
"~. c #E7E8E9",
"^. c #E5EBE8",
"/. c #E8E8E9",
"(. c #ECEBED",
"). c gray93",
"_. c #EFEFEF",
"`. c #EEEFF0",
"'. c #F3F2F3",
"]. c #F4F3F4",
"[. c gray96",
"{. c #F8F7F8",
"}. c #F9F9F9",
"|. c gray99",
" X c None",
/* pixels */
" X X X X X$.%.3.a.V.T. X X X X X",
" X X X6.;.3.k.N.N.w.a.H.^. X X X",
" X Xd.9.N.).{.{.'./.V.3.l.!. X X",
" XF.w.F.[.|.I.o.O.Z.Y.m.$.a./. X",
" XN.k.`.}.^.% , & 4 V.l.,./ w. X",
"W.w.D.`.].p.. h.! # <.3.$.^ W ;.",
"Y.9.H.!.(.Y.B g.! m ;.} ' Q S } ",
"H.,.D.K.@.V Z C B 5 3 G W U h ] ",
"H.*.b.V.M . o   X # O e J b i _ ",
"Y.%.a.b.l.q.6.$ = P b c c s y ] ",
"Q.7.,.l.b.b.q.: = I b k d q h ] ",
" XF. .a.l.b.a.: - Y S k y 7 P  X",
" XQ.i. .w.l.a.> 5 E J k 8 s W  X",
" X XP.X.( ,.w.#.) Q b q t S  X X",
" X X X_ l l L P J i q w h  X X X",
" X X X X X< < < 6 6 9  X X X X X"
};
