/* XPM */
static char *_571674610836[] = {
/* columns rows colors chars-per-pixel */
"64 64 179 2 ",
"   c #0E6F35",
".  c #156631",
"X  c #126D35",
"o  c #1A6936",
"O  c #0D7436",
"+  c #0F7538",
"@  c #0D7C3A",
"#  c #117137",
"$  c #12753A",
"%  c #1F7639",
"&  c #127C3D",
"*  c #1C7B3B",
"=  c #246E3D",
"-  c #257137",
";  c #227539",
":  c #28763C",
">  c #247543",
",  c #2D7444",
"<  c #247C45",
"1  c #297C46",
"2  c #337B47",
"3  c #327746",
"4  c #407D4F",
"5  c #4D7A5B",
"6  c #577F60",
"7  c #747475",
"8  c #777778",
"9  c #777A7C",
"0  c #7B7C7D",
"q  c #0C833E",
"w  c #0B883E",
"e  c #1B813E",
"r  c #20803F",
"t  c #0C8B41",
"y  c #188843",
"u  c #0B9243",
"i  c #119445",
"p  c #1B9349",
"a  c #238442",
"s  c #268945",
"d  c #23844A",
"f  c #2B854F",
"g  c #2B8D48",
"h  c #298646",
"j  c #3A874B",
"k  c #338C49",
"l  c #3C8B4A",
"z  c #358548",
"x  c #219549",
"c  c #2A934A",
"v  c #2B994D",
"b  c #33924C",
"n  c #3D934E",
"m  c #3E8E52",
"M  c #3D8D5A",
"N  c #328951",
"B  c #299751",
"V  c #3E9751",
"C  c #34915B",
"Z  c #3A9659",
"A  c #3B9561",
"S  c #42854B",
"D  c #458B54",
"F  c #409755",
"G  c #588A67",
"H  c #419362",
"J  c #4B9967",
"K  c #57976B",
"L  c #599974",
"P  c #618068",
"I  c #678E74",
"U  c #659375",
"Y  c #6B9D7D",
"T  c #619B74",
"R  c #71997D",
"E  c #6CA27F",
"W  c #7B7F81",
"Q  c #7D8183",
"!  c #7A9885",
"~  c #6DAB86",
"^  c #73A586",
"/  c #72A886",
"(  c #79A78A",
")  c #828485",
"_  c #858688",
"`  c #868A8A",
"'  c #8A8B8D",
"]  c #888789",
"[  c #87928E",
"{  c #879D8D",
"}  c #88908E",
"|  c #8D8E91",
" . c #908F90",
".. c #8E9192",
"X. c #929395",
"o. c #949699",
"O. c #97999B",
"+. c #9A9B9D",
"@. c #86A28E",
"#. c #85AB93",
"$. c #88A693",
"%. c #94A49D",
"&. c #94A99B",
"*. c #8DB19B",
"=. c #96B09F",
"-. c #9C9EA1",
";. c #A09FA0",
":. c #9EA0A3",
">. c #95AAA0",
",. c #9BB6A6",
"<. c #A2A3A5",
"1. c #A0ADA7",
"2. c #A4A6A9",
"3. c #A6AAAB",
"4. c #ABABAD",
"5. c #B0AEAF",
"6. c #A5B9AD",
"7. c #A5B3AC",
"8. c #ADAEB1",
"9. c #B0AFB1",
"0. c #AEB1B3",
"q. c #ABBBB3",
"w. c #B3B3B5",
"e. c #B9B7B7",
"r. c #B5B6B9",
"t. c #B8B7B9",
"y. c #B7B8BA",
"u. c #BBBCBD",
"i. c #B0BAB4",
"p. c #C0BFBF",
"a. c #ACC0B4",
"s. c #B5C7BE",
"d. c #BDBEC0",
"f. c #C1BFC0",
"g. c #BEC0C2",
"h. c #BBCBC2",
"j. c #B7D0C2",
"k. c #C2C3C4",
"l. c #C8C7C7",
"z. c #C6C6C8",
"x. c #C8C7C8",
"c. c #C7C9CA",
"v. c #CBCBCC",
"b. c #C2CAC6",
"n. c #D0CFCF",
"m. c #C1D4C9",
"M. c #C8D3CE",
"N. c #D1D0CF",
"B. c #CECFD1",
"V. c #D0CFD1",
"C. c #CFD0D1",
"Z. c #D2D3D5",
"A. c #D8D7D6",
"S. c #D7D8D7",
"D. c #D6D7D8",
"F. c #D7D8D9",
"G. c #DBDBDC",
"H. c #D8D8D7",
"J. c #E0DFDF",
"K. c #DCE0DE",
"L. c #E0E0DF",
"P. c #DEDFE0",
"I. c #E0DFE2",
"U. c #DFE0E1",
"Y. c #E4E5E4",
"T. c #E8E7E7",
"R. c #E8E8E6",
"E. c #E7E7E8",
"W. c #E7E8E9",
"Q. c #EBEBEC",
"!. c #E8E7E8",
"~. c #F0EFEF",
"^. c #EFEFF0",
"/. c #F0EFF1",
"(. c #EFF0F0",
"). c #F4F4F4",
"_. c #F7F8F8",
"`. c #FAFAFA",
"'. c None",
/* pixels */
"'.'.'.'.'.'.'.'.'.'.'.'.'.'.'.'.'.'.'.'.'.'.'.'.'.'.k.k.z.z.c.c.B.B.B.D.D.D.'.'.'.'.'.'.'.'.'.'.'.'.'.'.'.'.'.'.'.'.'.'.'.'.'.'.",
"'.'.'.'.'.'.'.'.'.'.'.'.'.'.'.'.'.'.'.'.'.'.d.d.g.k.g.z.z.x.c.B.B.B.B.Z.D.D.G.P.P.U.'.'.'.'.'.'.'.'.'.'.'.'.'.'.'.'.'.'.'.'.'.'.",
"'.'.'.'.'.'.'.'.'.'.'.'.'.'.'.'.'.'.'.'.g.d.d.g.d.g.k.z.x.c.x.v.B.B.Z.D.D.D.G.G.P.P.P.Y.'.'.'.'.'.'.'.'.'.'.'.'.'.'.'.'.'.'.'.'.",
"'.'.'.'.'.'.'.'.'.'.'.'.'.'.'.'.'.'.k.g.g.g.g.g.g.z.g.z.x.x.x.l.c.B.V.D.D.G.G.P.P.U.U.Y.E.E.E.'.'.'.'.'.'.'.'.'.'.'.'.'.'.'.'.'.",
"'.'.'.'.'.'.'.'.'.'.'.'.'.'.'.'.k.k.k.g.f.k.k.f.g.k.p.p.p.p.p.p.p.u.p.p.g.x.V.H.J.Y.I.R.E.E.E.E.'.'.'.'.'.'.'.'.'.'.'.'.'.'.'.'.",
"'.'.'.'.'.'.'.'.'.'.'.'.'.'.z.z.z.k.z.k.k.f.f.p.u.d.p.l.x.x.v.n.x.x.l.k.d.u.t.u.f.n.G.E.R.E.E.E.W.W.'.'.'.'.'.'.'.'.'.'.'.'.'.'.",
"'.'.'.'.'.'.'.'.'.'.'.'.'.c.z.z.z.z.z.f.d.u.p.l.v.Z.A.A.J.J.J.J.J.G.H.A.Z.v.x.k.u.e.t.x.G.E.R.E.W.W.W.'.'.'.'.'.'.'.'.'.'.'.'.'.",
"'.'.'.'.'.'.'.'.'.'.'.v.v.v.c.c.x.k.f.p.f.v.N.G.I.Y.T.Q.Q.Q.Q.Q.Q.Q.T.Y.I.H.A.Z.v.l.u.w.w.x.Y.!.W.W.W.W.W.'.'.'.'.'.'.'.'.'.'.'.",
"'.'.'.'.'.'.'.'.'.'.B.v.v.v.v.v.p.p.p.l.A.J.Y.T.~.(.(.).).)._.).).).~.Q.W.E.Y.P.F.Z.v.k.u.5.w.V.E.W.E.E.W.W.'.'.'.'.'.'.'.'.'.'.",
"'.'.'.'.'.'.'.'.'.Z.Z.v.B.B.x.s.p.l.V.J.Y.T.).)._.`.`.`.`.`._._.).).).).^.^.W.Y.Y.G.A.v.c.u.w.5.k.U.Q.Q.W.W.W.'.'.'.'.'.'.'.'.'.",
"'.'.'.'.'.'.'.'.Z.Z.Z.B.V.x.p.p.v.A.L.Q.~.).`.`.`.`.`.`.`.`._.).).)./.).^.Q.^.W.Y.Y.P.H.Z.v.k.r.3.e.G.Q.W.W.W.W.'.'.'.'.'.'.'.'.",
"'.'.'.'.'.'.'.A.Z.Z.Z.N.v.p.p.n.G.T.Q.).`.`.`.`.`.`.`.`.`._._._.).).~.~.^.Q.Q.W.E.Y.Y.P.H.Z.c.g.e.3.4.F.Q.W.W.W.W.'.'.'.'.'.'.'.",
"'.'.'.'.'.'.'.D.Z.Z.Z.n.p.p.V.J.T.~._.`.`.`.`.`.`.`.`.`.`.`.).`.).).).Q.Q.Q.W.W.Y.Y.P.P.P.D.C.v.p.e.2.4.A.!.!.E.W.'.'.'.'.'.'.'.",
"'.'.'.'.'.'.H.F.A.A.n.t.p.n.G.T.~.`.`.`.`.`.`.`.`.`.`.`.(.K.m.s.j.F.Q.Q.Q.Q.W.Y.Y.U.P.P.P.G.D.B.x.f.w.2.4.G.Q.E.W.W.'.'.'.'.'.'.",
"'.'.'.'.'.H.H.H.A.Z.p.p.n.G.T.~.`.`.`.`.`.`.`.`.`.`.).h./ J Z v Z J ( h.Y.E.E.Y.U.U.P.P.G.G.D.Z.v.l.u.5.<.5.Y.E.W.W.W.'.'.'.'.'.",
"'.'.'.'.'.G.G.H.H.k.u.x.A.Y.~.).`.`.`.`.`.`.`.`.`.Q.*.f r v V v c n s k *.H.Y.U.U.P.P.P.D.D.D.Z.V.v.f.e.4.+.r.E.E.E.W.'.'.'.'.'.",
"'.'.'.'.G.J.G.G.n.e.k.V.Y.Q.).).`.`.`.`.`.`.`._.^.( & & d k F v x n k e 1 #.H.Y.P.P.P.D.D.Z.Z.Z.V.v.z.u.w.<.+.v.Y.Y.Y.Y.'.'.'.'.",
"'.'.'.'.L.G.L.H.u.u.n.G.T.~.).`.`.`.`.`._._.`.).q.= $ & y f Z H B b l r * 2 6.K.D.P.D.D.D.Z.Z.B.B.v.z.d.t.4.;.;.A.J.P.G.G.'.'.'.",
"'.'.'.G.L.L.L.x.e.l.Z.Y.Q./.).).).`.).`.`.`.`.Y.G   $ & d ( j.M.s.^ F r * % P M.D.D.D.Z.Z.B.B.B.v.v.z.k.u.9.<.o.w.A.D.Z.Z.'.'.'.",
"'.'.'.Y.L.Y.H.e.d.V.G.E.~.).).).).).`.).).).).s.>     & #.Y.Q.W.!.H.( a * ; 2 i.D.D.Z.Z.B.B.B.B.c.v.z.k.u.w.2.+.O.l.B.B.v.'.'.'.",
"'.'.Y.L.Y.Y.x.e.z.Z.Y.W.^.).(.).).).)._.).).).=.o   $ C D.Q.Q.W.R.Y.b.M * % : &.D.Z.Z.B.B.B.g.B.z.k.g.g.d.y.8.-.X.3.z.z.z.z.'.'.",
"'.'.L.L.L.G.e.u.v.G.Y.Q.^.(.(.(.(.(.).).).).~.$.. X   L U.W.W.W.Y.P.Z.K * ; - { B.B.B.c.c.B.c.g.z.g.d.d.d.y.8.<.o.o.d.k.k.g.'.'.",
"'.R.L.R.Y.N.5.k.C.P.W.Q.^.^.(.(.(.(.(.(.).).).$.o X + J P.W.W.U.I.I.B.K < % > ( B.B.B.g.g.c.d.d.g.d.d.d.d.r.8.2.+. .4.d.d.d.d.'.",
"'.Y.R.L.Y.p.e.x.Z.P.W.W.Q.W.Q.^.(.(.~.~.~.~.~.7.o   + d h.W.U.P.J.G.6.D , = , %.B.B.c.c.d.d.d.d.d.d.d.y.r.w.0.2.+. .+.d.d.d.d.'.",
"'.Y.Y.Y.J.e.e.v.H.I.R.E.W.W.Q.Q.Q.Q.^.Q.^.^.^.M.3   + & *.U.U.P.G.Z.E j z % 4 w.v.c.z.g.g.g.d.d.d.d.r.d.r.r.8.3.;. . .e.u.d.d.'.",
"'.R.Y.Y.A.5.p.v.H.Y.Y.R.W.W.W.W.Q.Q.Q.Q.Q.^.Q.U.! $ O f h.P.P.P.G.B.T j S ; R k.g.d.d.d.d.d.d.d.w.r.w.w.0.0.8.3.;.X.' 5.k.u.d.'.",
"R.Y.R.Y.v.5.k.n.G.U.U.Y.W.Y.W.W.W.W.W.W.W.Q.Q.W.D.#.^ 6.P.P.P.D.D.V.,.D S G 8.k.d.d.d.d.d.d.8.d.w.w.0.r.0.8.8.<.;.o.] <.g.d.d.d.",
"Y.R.Y.R.f.5.k.N.G.U.U.U.U.Y.U.U.Y.W.W.W.W.W.W.W.W.P.P.P.P.P.D.D.Z.B.v.w.7.i.k.g.d.d.d.w.d.d.d.3.0.0.0.0.8.8.8.3.:.o.] O.u.d.g.u.",
"R.Y.Y.Y.u.5.k.Z.G.P.P.P.P.U.P.U.Y.Y.Y.Y.Y.E.E.Y.U.E.P.P.P.P.D.Z.V.B.v.c.z.k.d.d.d.r.r.d.8.d.d.8.0.8.8.8.3.3.3.2.<.o.] X.u.d.d.d.",
"T.Y.R.R.e.w.k.N.D.G.G.P.P.P.P.P.U.U.Y.I.I.Y.Y.Y.P.P.P.P.P.C.Z.B.v.c.l.k.d.d.d.d.d.r.w.w.d.8.2.8.8.3.3.3.3.3.3.<.+.o.] ' u.g.g.u.",
"R.R.R.L.5.e.k.N.D.G.G.P.P.P.G.P.P.D.,.^ ! ^ ^ ^ ( ~ ~ ~ ~ ~ ~ ~ / / / E ^ R U U U U I I Q 3.8.8.3.3.3.3.3.3.<.<.+.o.] ] y.d.d.d.",
"Y.R.Y.L.5.5.k.n.D.G.G.D.G.G.F.P.G.&.= X   O O O @ @ @ t @ t u u x v n g a l g & * $ % = , ! 2.3.2.2.2.2.<.<.<.:.+.X.] ] y.d.g.u.",
"R.R.T.Y.9.9.f.v.D.D.D.D.D.D.D.P.v.H . o #   O @ @ @ @ t t u u i x b F l s l j * < * % ; - 6 <.2.2.2.2.:.-.:.:.-.-..._ _ d.d.d.d.",
"R.Y.R.I.9.8.f.v.Z.D.D.D.D.D.D.D.B.Q .       O @ @ @ t t t u u u p v n V s l l e & > > ; = 6 :.<.:.:.:.-.-.-.-.-.o.| ) _ w.d.d.d.",
"Y.R.!.I.w.4.d.v.Z.Z.D.D.D.D.D.D.Z.0.5 > > > < < < d d d d t u u p c l F N N S z 1 1 1 1 5 ' ;.<.-.-.-.-.-.-.-.o...' W ] w.d.d.d.",
"Y.R.!.I.r.4.f.f.B.Z.Z.D.Z.Z.Z.Z.Z.B.d.3.:.d.3.3.7.1.3.1.-.C u u i M ..[ ..[ [ ` ..Q ' Q X.;.-.-.-.-.-.-.o.-.-.-...' W | d.d.d.d.",
"R.R.R.R.f.2.d.f.B.Z.Z.Z.Z.Z.Z.Z.Z.Z.Z.Z.Z.Z.Z.Z.Z.B.B.B.d.A u u i H 2.8.3.2.2.<.:.:.:.:.-.:.-.-.-.-.-.-.o.-.-...| ] 9 X.d.w.d.d.",
"R.Y.L.R.v.;.9.f.v.B.Z.Z.Z.Z.Z.Z.Z.Z.Z.Z.Z.D.Z.Z.Z.B.B.B.h.A u u i A 2.8.2.2.2.<.:.:.:.:.-.O.-.-.-.-.o.o.o.o.o.X.' ) 8 -.d.d.d.d.",
"'.R.R.R.D.2.d.d.f.B.Z.Z.Z.Z.Z.Z.Z.Z.Z.Z.Z.Z.Z.Z.Z.Z.B.g.d.C u u t H 2.3.2.2.<.:.:.-.-.-.-.O.O.O.o.o.o.-.o.o.....] W 9 4.d.r.w.'.",
"'.R.R.R.P.3.2.d.f.B.Z.Z.Z.Z.Z.Z.Z.Z.D.Z.Z.Z.Z.Z.Z.Z.B.B.d.A u u t A :.2.2.2.:.:.-.-.O.-.-.O.O.O.o.-.o.o.o.o...| ) 0 W 0.r.d.d.'.",
"'.T.R.R.R.p.;.e.d.v.Z.Z.Z.Z.Z.Z.Z.Z.Z.Z.Z.D.Z.Z.Z.Z.B.v.d.A u u u H <.3.2.-.2.-.-.-.-.-.O.O.O.O.o.o.o.X.o.X.| ' ) 8 | t.r.y.y.'.",
"'.R.R.R.R.n.<.5.d.f.B.Z.Z.Z.Z.Z.Z.Z.Z.Z.Z.Z.Z.Z.Z.Z.B.v.d.C u u u H <.3.3.-.-.-.-.-.-.-.O.O.O.O.o.o.o.o.X.| | ) W 7 ;.t.r.y.y.'.",
"'.'.T.R.R.L.5.2.d.d.v.Z.Z.Z.Z.Z.Z.Z.Z.Z.Z.Z.Z.Z.Z.C.B.v.d.A u u t A <.3.2.2.:.:.-.o.o.-.O.O.o.o.o.o.o.o.X.| ' ) 8 0 9.r.r.r.'.'.",
"'.'.T.R.R.R.l.;.d.d.f.B.Z.Z.Z.Z.Z.Z.Z.Z.Z.Z.Z.Z.Z.Z.B.v.d.C u u t A <.8.3.2.2.-.-.-.-.o.O.O.O.o.o...X.X.| | ) 0 7 X.w.w.r.r.'.'.",
"'.'.'.R.R.R.L.5.2.d.d.v.B.Z.Z.Z.Z.Z.Z.Z.Z.Z.Z.Z.Z.Z.C.v.h.A u u u H 3.8.2.<.:.:.-.-.-.o.O.O.o.o.o.o.o...| ] ) 8 9 3.w.w.w.'.'.'.",
"'.'.'.Q.L.R.L.l.:.3.d.f.B.Z.Z.Z.Z.Z.Z.Z.Z.Z.Z.Z.Z.Z.B.B.d.A u u u H 3.8.3.3.2.-.-.-.O.-.O.O.o.o.o.....| ' ) 9 7  .9.8.9.8.'.'.'.",
"'.'.'.'.R.R.R.L.d.-.d.d.z.B.Z.Z.Z.Z.Z.Z.Z.Z.Z.Z.Z.C.B.v.d.C u u u A 8.8.4.2.2.2.-.-.-.-.O.O.o.o.o.X...' ) 0 7 0 2.9.8.8.8.'.'.'.",
"'.'.'.'.L.R.R.R.Z.:.2.d.d.c.B.Z.Z.Z.D.Z.Z.Z.Z.D.C.C.B.v.h.A u u u H 3.8.8.3.2.;.:.-.-.-.-.O.O.o.X.X.' ` ) 9 7 O.8.4.8.8.'.'.'.'.",
"'.'.'.'.'.T.T.R.R.p.;.5.u.k.v.n.Z.Z.Z.Z.Z.Z.Z.C.Z.Z.B.B.d.A u u t A 3.8.8.3.2.2.<.-.-.-.+.O.o.o.o...` W 9 7 ] 4.4.4.5.'.'.'.'.'.",
"'.'.'.'.'.T.R.R.R.L.e.;.5.u.k.v.N.Z.Z.Z.Z.Z.D.C.C.C.B.B.g.A u u t A 4.d.8.8.3.2.2.<.-.-.+.O.O.o...` _ W 7 ) ;.2.4.2.4.'.'.'.'.'.",
"'.'.'.'.'.'.R.R.R.R.J.5.<.9.u.f.c.v.Z.Z.Z.Z.Z.Z.C.C.B.B.g.J t u u L 8.0.0.8.4.2.2.:.-.-.+.+.X.X.] Q W W 0 ;.2.2.2.2.'.'.'.'.'.'.",
"'.'.'.'.'.'.'.R.R.R.R.A.5.<.9.t.k.l.v.N.Z.Z.Z.Z.Z.B.B.v.z.>.A p A %.0.d.0.8.4.3.2.2.<.-.+.O.X.' ] W 7 W +.<.<.<.2.'.'.'.'.'.'.'.",
"'.'.'.'.'.'.'.R.R.R.R.R.A.5.;.5.e.p.k.v.v.Z.Z.Z.C.C.B.B.v.g.7.>.3.d.d.8.0.0.8.3.2.<.:.-.O.X.' ] W 8 0 o.;.;.<.<.2.'.'.'.'.'.'.'.",
"'.'.'.'.'.'.'.'.L.R.L.L.J.n.5.;.4.w.e.k.l.c.v.Z.C.Z.B.B.v.v.z.g.d.d.d.0.0.8.8.3.2.<.-.O.X.' ] 0 8 Q X.-.;.;.<.<.'.'.'.'.'.'.'.'.",
"'.'.'.'.'.'.'.'.'.Y.L.A.A.N.l.5.;.2.4.e.u.k.l.c.B.v.v.B.v.v.z.z.d.d.d.0.r.8.8.3.<.-.O...' ) 0 8 ] O.;.;.;.;.;.'.'.'.'.'.'.'.'.'.",
"'.'.'.'.'.'.'.'.'.'.A.A.n.v.k.e.4.;.<.2.0.e.u.p.k.z.z.z.z.g.g.g.d.d.d.0.8.8.<.;.-.O...' ) 0 ) ' o.O.O.;.;.-.'.'.'.'.'.'.'.'.'.'.",
"'.'.'.'.'.'.'.'.'.'.'.n.v.f.p.w.4.<.+.+.;.4.5.i.r.d.d.d.d.d.d.d.0.0.9.8.2.;.;.-.o.' ] ) 0 ] X.o.O.O.O.+.+.'.'.'.'.'.'.'.'.'.'.'.",
"'.'.'.'.'.'.'.'.'.'.'.'.'.u.5.4.2.+.O.o.X.O.;.<.2.4.9.w.0.0.8.0.8.3.4.;.;.O.o. .] ) ) _ ' X.X.X.X.o.O.'.'.'.'.'.'.'.'.'.'.'.'.'.",
"'.'.'.'.'.'.'.'.'.'.'.'.'.'.5.<.+.O...| ' ' '  .o.+.;.;.;.2.2.-.-.-.O.o. .' ] ] ) ' ' |  .| X.X.X.X.'.'.'.'.'.'.'.'.'.'.'.'.'.'.",
"'.'.'.'.'.'.'.'.'.'.'.'.'.'.'.'.O...| ` ] _ ) ) ) ] ] | | X...o.| | ' ] ] _ ) ] ` ' | | | X.X.X.'.'.'.'.'.'.'.'.'.'.'.'.'.'.'.'.",
"'.'.'.'.'.'.'.'.'.'.'.'.'.'.'.'.'...` ` Q Q Q Q Q W W Q W W W Q _ W W _ ) _ _ _ ] ' ' '  .X.X.'.'.'.'.'.'.'.'.'.'.'.'.'.'.'.'.'.",
"'.'.'.'.'.'.'.'.'.'.'.'.'.'.'.'.'.'.'.'.Q Q Q W W W W W W W W W W W _ W ) ) ) _ _ ' ` ' '.'.'.'.'.'.'.'.'.'.'.'.'.'.'.'.'.'.'.'.",
"'.'.'.'.'.'.'.'.'.'.'.'.'.'.'.'.'.'.'.'.'.'.W W W W W W W W W W W W W ) Q Q ) _ ] ] '.'.'.'.'.'.'.'.'.'.'.'.'.'.'.'.'.'.'.'.'.'.",
"'.'.'.'.'.'.'.'.'.'.'.'.'.'.'.'.'.'.'.'.'.'.'.'.'.'.9 W W W W W W W W W ) ) '.'.'.'.'.'.'.'.'.'.'.'.'.'.'.'.'.'.'.'.'.'.'.'.'.'."
};
